<mxfile host="Electron" agent="Mozilla/5.0 (Windows NT 10.0; Win64; x64) AppleWebKit/537.36 (KHTML, like Gecko) draw.io/28.2.5 Chrome/138.0.7204.251 Electron/37.6.1 Safari/537.36" version="28.2.5">
  <diagram name="Sida-1" id="OIe4MZ4Q-Nkm0HFW6vuP">
    <mxGraphModel dx="2066" dy="1201" grid="1" gridSize="10" guides="1" tooltips="1" connect="1" arrows="1" fold="1" page="1" pageScale="1" pageWidth="827" pageHeight="1169" math="0" shadow="0">
      <root>
        <mxCell id="0" />
        <mxCell id="1" parent="0" />
        <mxCell id="0iYSSm8OEZxcaoMVC7xw-8" value="" style="edgeStyle=orthogonalEdgeStyle;rounded=0;orthogonalLoop=1;jettySize=auto;html=1;" edge="1" parent="1" source="0iYSSm8OEZxcaoMVC7xw-1" target="0iYSSm8OEZxcaoMVC7xw-7">
          <mxGeometry relative="1" as="geometry" />
        </mxCell>
        <mxCell id="0iYSSm8OEZxcaoMVC7xw-1" value="Skola" style="rounded=0;whiteSpace=wrap;html=1;" vertex="1" parent="1">
          <mxGeometry x="530" y="130" width="120" height="60" as="geometry" />
        </mxCell>
        <mxCell id="0iYSSm8OEZxcaoMVC7xw-10" value="" style="edgeStyle=orthogonalEdgeStyle;rounded=0;orthogonalLoop=1;jettySize=auto;html=1;entryX=0;entryY=0.5;entryDx=0;entryDy=0;" edge="1" parent="1" source="0iYSSm8OEZxcaoMVC7xw-2" target="0iYSSm8OEZxcaoMVC7xw-7">
          <mxGeometry relative="1" as="geometry">
            <mxPoint x="290" y="160" as="targetPoint" />
          </mxGeometry>
        </mxCell>
        <mxCell id="0iYSSm8OEZxcaoMVC7xw-14" value="" style="edgeStyle=orthogonalEdgeStyle;rounded=0;orthogonalLoop=1;jettySize=auto;html=1;" edge="1" parent="1" source="0iYSSm8OEZxcaoMVC7xw-2" target="0iYSSm8OEZxcaoMVC7xw-13">
          <mxGeometry relative="1" as="geometry">
            <Array as="points">
              <mxPoint x="130" y="110" />
              <mxPoint x="70" y="110" />
            </Array>
          </mxGeometry>
        </mxCell>
        <mxCell id="0iYSSm8OEZxcaoMVC7xw-17" style="edgeStyle=orthogonalEdgeStyle;rounded=0;orthogonalLoop=1;jettySize=auto;html=1;exitX=0.5;exitY=1;exitDx=0;exitDy=0;" edge="1" parent="1" source="0iYSSm8OEZxcaoMVC7xw-2" target="0iYSSm8OEZxcaoMVC7xw-15">
          <mxGeometry relative="1" as="geometry">
            <Array as="points">
              <mxPoint x="130" y="110" />
              <mxPoint x="220" y="110" />
            </Array>
          </mxGeometry>
        </mxCell>
        <mxCell id="0iYSSm8OEZxcaoMVC7xw-24" value="" style="edgeStyle=orthogonalEdgeStyle;rounded=0;orthogonalLoop=1;jettySize=auto;html=1;" edge="1" parent="1" source="0iYSSm8OEZxcaoMVC7xw-2" target="0iYSSm8OEZxcaoMVC7xw-22">
          <mxGeometry relative="1" as="geometry" />
        </mxCell>
        <mxCell id="0iYSSm8OEZxcaoMVC7xw-2" value="Student" style="rounded=0;whiteSpace=wrap;html=1;" vertex="1" parent="1">
          <mxGeometry x="70" y="130" width="120" height="60" as="geometry" />
        </mxCell>
        <mxCell id="0iYSSm8OEZxcaoMVC7xw-12" value="" style="edgeStyle=orthogonalEdgeStyle;rounded=0;orthogonalLoop=1;jettySize=auto;html=1;" edge="1" parent="1" source="0iYSSm8OEZxcaoMVC7xw-3" target="0iYSSm8OEZxcaoMVC7xw-11">
          <mxGeometry relative="1" as="geometry" />
        </mxCell>
        <mxCell id="0iYSSm8OEZxcaoMVC7xw-21" style="edgeStyle=orthogonalEdgeStyle;rounded=0;orthogonalLoop=1;jettySize=auto;html=1;exitX=0.5;exitY=1;exitDx=0;exitDy=0;entryX=0.5;entryY=0;entryDx=0;entryDy=0;" edge="1" parent="1" source="0iYSSm8OEZxcaoMVC7xw-3" target="0iYSSm8OEZxcaoMVC7xw-19">
          <mxGeometry relative="1" as="geometry" />
        </mxCell>
        <mxCell id="0iYSSm8OEZxcaoMVC7xw-25" value="" style="edgeStyle=orthogonalEdgeStyle;rounded=0;orthogonalLoop=1;jettySize=auto;html=1;" edge="1" parent="1" source="0iYSSm8OEZxcaoMVC7xw-3" target="0iYSSm8OEZxcaoMVC7xw-22">
          <mxGeometry relative="1" as="geometry" />
        </mxCell>
        <mxCell id="0iYSSm8OEZxcaoMVC7xw-3" value="Kurs" style="rounded=0;whiteSpace=wrap;html=1;" vertex="1" parent="1">
          <mxGeometry x="80" y="400" width="120" height="60" as="geometry" />
        </mxCell>
        <mxCell id="0iYSSm8OEZxcaoMVC7xw-7" value="studerar på" style="rhombus;whiteSpace=wrap;html=1;rounded=0;" vertex="1" parent="1">
          <mxGeometry x="310" y="120" width="130" height="80" as="geometry" />
        </mxCell>
        <mxCell id="0iYSSm8OEZxcaoMVC7xw-11" value="Namn" style="ellipse;whiteSpace=wrap;html=1;rounded=0;" vertex="1" parent="1">
          <mxGeometry x="30" y="535" width="80" height="50" as="geometry" />
        </mxCell>
        <mxCell id="0iYSSm8OEZxcaoMVC7xw-13" value="Namn" style="ellipse;whiteSpace=wrap;html=1;rounded=0;" vertex="1" parent="1">
          <mxGeometry x="30" y="42.5" width="80" height="40" as="geometry" />
        </mxCell>
        <mxCell id="0iYSSm8OEZxcaoMVC7xw-15" value="Pnr" style="ellipse;whiteSpace=wrap;html=1;" vertex="1" parent="1">
          <mxGeometry x="180" y="40" width="80" height="45" as="geometry" />
        </mxCell>
        <mxCell id="0iYSSm8OEZxcaoMVC7xw-19" value="Kurskod" style="ellipse;whiteSpace=wrap;html=1;" vertex="1" parent="1">
          <mxGeometry x="140" y="535" width="90" height="55" as="geometry" />
        </mxCell>
        <mxCell id="0iYSSm8OEZxcaoMVC7xw-22" value="kan vara registrerade på" style="rhombus;whiteSpace=wrap;html=1;" vertex="1" parent="1">
          <mxGeometry x="45" y="260" width="170" height="70" as="geometry" />
        </mxCell>
      </root>
    </mxGraphModel>
  </diagram>
</mxfile>
